<svg width="90" height="30" viewBox="0 0 300 101.491" class="css-1j8o68f" xmlns="http://www.w3.org/2000/svg"><defs><linearGradient id="a"><stop stop-color="#ef4136" offset="0"/><stop stop-color="#fbb040" offset="1"/></linearGradient></defs><path d="M59.5 3.082c-4.795 0-8.602 4.16-8.746 9.193a1.25 1.25 0 0 0-.01.16v.053c0 .027-.004.053-.004.08a1.25 1.25 0 0 0 .004.125l-.012 6.063a1.25 1.25 0 0 0 .028.27 1.25 1.25 0 0 0 0 .005c.087 2.786 1.09 5.342 2.709 7.309-1.698 2.033-2.723 4.707-2.754 7.625a1.25 1.25 0 0 0-.012.18l-.04 21.643a1.25 1.25 0 0 0 0 .007V55.967a1.25 1.25 0 0 0 .017.215 1.25 1.25 0 0 0 0 .008c.058 3.216 1.313 6.136 3.355 8.213-2.112 2.134-3.4 5.177-3.398 8.484v.002a1.25 1.25 0 0 0-.006.121l-.03 15.393a1.25 1.25 0 0 0 0 .014v.162a1.25 1.25 0 0 0 .018.225c.189 4.99 3.977 9.1 8.742 9.1 2.987 0 5.59-1.619 7.166-4.052.493.235 1 .443 1.538.592 5.393 1.5 10.865-2.125 12.193-7.873.053-.233.09-.466.128-.699 4.827 1.82 10.372-.265 13.033-5.17 2.117-3.902 1.952-8.559-.076-12.19a15.034 15.034 0 0 0 3.471-4.632c3.343-6.865 1.417-15.253-4.334-19.629.706-1.55 1.12-3.28 1.12-5.115 0-5.654-3.79-10.445-8.843-11.391 2.112-5.442.607-11.91-4.006-15.543-2.674-2.106-5.914-2.814-8.96-2.268-1.26.226-2.483.678-3.624 1.323-.59-4.563-4.2-8.174-8.668-8.174zM48.734 3.1a47.453 47.453 0 0 0-8.94.927l.006.004.002.002a9.264 9.264 0 0 1 .112.238l.025.063a9.264 9.264 0 0 1-4.973 12.109 9.264 9.264 0 0 1-12.115-4.951 9.264 9.264 0 0 1-.12-.328A47.453 47.453 0 0 0 9.831 24.127a9.264 9.264 0 0 1 4.436 4.673l.027.065a9.264 9.264 0 0 1-4.973 12.107 9.264 9.264 0 0 1-6.574.213 47.453 47.453 0 0 0-.013 18.713 9.264 9.264 0 0 1 .294-.139 9.264 9.264 0 0 1 12.133 4.906l.028.065a9.264 9.264 0 0 1-4.973 12.105 9.264 9.264 0 0 1-.363.13A47.453 47.453 0 0 0 23.057 90.06a9.264 9.264 0 0 1 4.886-4.842 9.264 9.264 0 0 1 12.135 4.906l.028.064a9.264 9.264 0 0 1 .09 6.87 47.453 47.453 0 0 0 8.539.826v-27.98a19.424 19.424 0 0 1-17.408-11.857A19.424 19.424 0 0 1 41.659 32.62a19.424 19.424 0 0 1 7.076-1.51V3.099zM59.5 5.582c3.407 0 6.262 3.053 6.262 6.986a1.25 1.25 0 0 0 .068.422 12.414 12.414 0 0 0-1.844 2.197 1.25 1.25 0 1 0 2.092 1.37c3.092-4.723 8.867-5.748 13.127-2.393 4.26 3.355 5.272 10.002 2.18 14.725-1.758 2.685-4.4 4.144-7.12 4.314-.272.018-.546.006-.82-.003-.062-2.906-1.192-5.773-3.367-7.864a12.185 12.185 0 0 0 1.985-6.58 1.25 1.25 0 1 0-2.5-.025c-.049 5.084-3.788 9.027-8.245 8.976-4.456-.05-8.126-4.081-8.078-9.166a1.25 1.25 0 0 0-.004-.125 1.25 1.25 0 0 0-.003-.025l.01-5.293.001-.613c.041-3.892 2.874-6.903 6.256-6.903zm8.973 21.689c3.012 3.037 3.31 8.29.593 11.713a8.076 8.076 0 0 1-.68.756c-.107.105-.224.192-.335.289-.087-.124-.166-.253-.258-.373-1.634-2.135-4.022-3.6-6.799-3.871a1.25 1.25 0 0 0-.123-.008 1.25 1.25 0 0 0-.119 2.496c4.081.397 7.202 4.402 6.824 9.07-.059.73-.2 1.427-.412 2.082a1.25 1.25 0 1 0 2.379.768c.271-.84.45-1.726.525-2.648.151-1.861-.146-3.664-.795-5.278a10.359 10.359 0 0 0 1.75-1.73 11.24 11.24 0 0 0 2.215-4.836c2.915.127 5.822-.905 8.112-2.957a12.708 12.708 0 0 0 2.127-2.484c.034-.053.061-.11.095-.163 4.168.359 7.528 4.197 7.528 9.037a9.892 9.892 0 0 1-.692 3.66c-.017.044-.04.083-.059.126-1.5-.763-3.07-1.23-4.65-1.387a12.956 12.956 0 0 0-4.53.367c-.475-1.33-1.371-2.499-2.638-3.26a1.25 1.25 0 0 0-.715-.185 1.25 1.25 0 0 0-.572 2.328c1.648.99 2.32 3.403 1.371 5.303-.148.297-.324.56-.52.789a1.25 1.25 0 1 0 1.901 1.623 6.36 6.36 0 0 0 .855-1.295 6.763 6.763 0 0 0 .704-2.819c2.682-.766 5.597-.49 8.253 1.067 5.613 3.287 7.802 11.083 4.758 17.334-1.508 3.098-3.98 5.196-6.754 6.142-1.248.426-2.485.312-3.814-.382s-2.72-2.014-3.977-3.977a1.25 1.25 0 0 0-.02-.03c1.753-1.386 2.923-3.582 3.026-6.058a1.25 1.25 0 0 0-1.215-1.318 1.25 1.25 0 0 0-1.283 1.214c-.128 3.082-2.439 5.324-5.07 5.192a4.381 4.381 0 0 1-1.182-.225 1.25 1.25 0 1 0-.797 2.371 6.792 6.792 0 0 0 4.33.008 1.25 1.25 0 0 0 .106.193c1.43 2.235 3.089 3.887 4.924 4.846 1.835.959 3.878 1.182 5.779.533a13.49 13.49 0 0 0 2.682-1.273c1.459 2.842 1.556 6.473-.078 9.486-2.268 4.181-6.834 5.647-10.688 3.707-.272-4.508-3.128-8.544-7.426-9.775.34-2.075-.082-4.286-1.336-6.117a1.25 1.25 0 0 0-1.063-.559 1.25 1.25 0 0 0-1.216 1.43 1.25 1.25 0 0 0 .023.123 1.25 1.25 0 0 0 .191.418c1.656 2.418 1.187 5.927-.978 7.71a4.747 4.747 0 0 1-1.059.665 1.25 1.25 0 1 0 1.031 2.275 7.26 7.26 0 0 0 1.618-1.01 7.839 7.839 0 0 0 2.023-2.558 1.25 1.25 0 0 0 .023.008c3.983 1.107 6.502 5.648 5.454 10.184-.786 3.401-3.263 5.712-6.133 6.19a6.808 6.808 0 0 1-4.084-.598c.331-1 .52-2.07.52-3.184a1.25 1.25 0 0 0-2.499-.088 1.25 1.25 0 0 0-.002.088c0 3.687-2.51 6.601-5.63 6.951a5.654 5.654 0 0 1-.631.035c-3.406 0-6.257-3.05-6.26-6.98v-.006l.03-14.947a1.25 1.25 0 0 0 .001-.154c-.216-5 3.212-9.125 7.566-9.473a7.903 7.903 0 0 0 2.38 3.385 7.257 7.257 0 0 0 1.615 1.011 1.25 1.25 0 1 0 1.03-2.277 4.748 4.748 0 0 1-1.058-.664c-2.165-1.783-2.634-5.293-.978-7.71a1.25 1.25 0 0 0-1.041-1.972 1.25 1.25 0 0 0-1.022.559 8.395 8.395 0 0 0-1.437 5.21 9.991 9.991 0 0 0-4.176 1.448c-1.756-1.68-2.887-4.186-2.85-7.004l.02-10.695.021-10.838a1.25 1.25 0 0 0 .002-.1c-.022-2.354.765-4.492 2.053-6.107 1.7 1.308 3.773 2.094 6.031 2.12 2.771.031 5.28-1.095 7.184-2.936z" transform="matrix(.82778 0 0 .82778 -1.498 20.449)" fill="url(#a)"/><path d="M113.907 63.61c-1.766-.718-3.408-1.518-4.926-2.401s-2.828-1.946-3.932-3.187-1.959-2.705-2.566-4.388-.91-3.684-.91-6.002c0-2.87.496-5.394 1.49-7.574s2.387-4.015 4.18-5.505 3.96-2.621 6.498-3.394S119.095 30 122.185 30c2.539 0 5.133.262 7.782.786s5.822 1.421 9.52 2.69l-5.63 10.1a26.025 26.025 0 0 0-11.34-2.566c-.773 0-1.574.083-2.401.248s-1.573.456-2.235.87-1.215.979-1.656 1.696-.662 1.656-.662 2.815c0 .938.18 1.71.538 2.318s.814 1.131 1.366 1.573 1.186.814 1.904 1.117 1.435.593 2.152.87l4.884 1.903c2.097.828 4.015 1.697 5.754 2.608s3.214 2.014 4.428 3.311 2.153 2.884 2.815 4.76.993 4.222.993 7.037-.51 5.38-1.531 7.698-2.511 4.291-4.47 5.92-4.374 2.897-7.244 3.807-6.153 1.366-9.85 1.366c-1.712 0-3.284-.055-4.72-.166s-2.828-.303-4.18-.579-2.704-.607-4.056-.993-2.8-.883-4.346-1.49l2.815-11.59c2.262.607 4.483 1.145 6.663 1.614s4.402.704 6.664.704c3.036 0 5.353-.4 6.954-1.2s2.539-2.332 2.815-4.595c.11-1.159-.028-2.124-.414-2.897s-.939-1.421-1.656-1.945-1.518-.952-2.4-1.283l-2.65-.994zm33.444-16.805h12.582V69.32c0 1.932.166 3.546.497 4.843s.828 2.318 1.49 3.063 1.476 1.269 2.442 1.573 2.111.455 3.436.455c1.6 0 3.035-.083 4.304-.248l-.165-1.49V46.804h12.583v40.894c-2.042.717-4.484 1.352-7.327 1.904s-5.753.828-8.733.828c-2.815 0-5.505-.221-8.071-.663s-4.815-1.38-6.747-2.814-3.463-3.518-4.594-6.25-1.697-6.416-1.697-11.052V46.805zm47.6 10.265h-6.872l5.464-10.265h12.003l.994 4.635c1.269-1.434 2.828-2.607 4.677-3.518s3.987-1.366 6.415-1.366c5.684 0 9.741 2.07 12.17 6.209 1.379-1.932 3.007-3.45 4.883-4.553s4.222-1.656 7.037-1.656c4.967 0 8.595 1.311 10.886 3.932s3.435 6.802 3.435 12.542v26.987H243.46V65.265c0-2.649-.428-4.525-1.283-5.63s-2.332-1.655-4.429-1.655c-.883 0-1.697.097-2.442.29s-1.38.552-1.904 1.076-.938 1.242-1.242 2.152-.455 2.111-.455 3.601v24.918h-12.583V65.099c0-2.759-.483-4.635-1.448-5.629s-2.304-1.49-4.015-1.49c-.828 0-1.6.083-2.318.248s-1.366.497-1.946.994-1.034 1.214-1.365 2.152-.497 2.18-.497 3.725v24.918H194.95V57.07zm86.092 22.102H300v10.845h-35.017v-9.355l1.366-1.531 3.477-3.89 4.677-5.216 4.967-5.505 4.305-4.801 2.814-3.063-1.324.414h-9.603v4.553l-10.348-3.146V46.805h34.19v9.768z"/></svg>